<svg width="77" height="92" viewBox="0 0 77 92" fill="none" xmlns="http://www.w3.org/2000/svg">
<path d="M0.76 44C0.76 29.2373 4.51467 18.3147 12.024 11.232C19.6187 4.064 29.56 0.479996 41.848 0.479996C52.344 0.479996 60.7493 3.12533 67.064 8.41599C73.3787 13.7067 76.536 21.1733 76.536 30.816C76.536 34.9973 75.896 38.88 74.616 42.464C73.4213 45.9627 71.8 49.0773 69.752 51.808C67.704 54.4533 64.9733 56.928 61.56 59.232C58.1467 61.4507 54.6053 63.3707 50.936 64.992C47.352 66.528 42.9573 68.0213 37.752 69.472C32.632 70.9227 27.6827 72.16 22.904 73.184C18.2107 74.208 12.7067 75.2747 6.392 76.384V80.608L17.016 77.664H76.536V92H2.04V63.2C3.832 62.944 5.32533 62.7307 6.52 62.56C7.71467 62.3893 9.89067 62.0053 13.048 61.408C16.2053 60.8107 18.936 60.256 21.24 59.744C23.544 59.1467 26.4453 58.336 29.944 57.312C33.4427 56.2027 36.4293 55.0933 38.904 53.984C41.464 52.7893 44.152 51.3813 46.968 49.76C49.784 48.0533 52.088 46.2613 53.88 44.384C55.672 42.5067 57.1227 40.3733 58.232 37.984C59.4267 35.5093 60.024 32.9067 60.024 30.176C60.024 25.4827 58.5307 21.7707 55.544 19.04C52.6427 16.224 48.1627 14.816 42.104 14.816C33.912 14.816 27.7253 17.12 23.544 21.728C19.3627 26.336 17.272 33.76 17.272 44H0.76Z" fill="url(#paint0_linear_6_61)"/>
<defs>
<linearGradient id="paint0_linear_6_61" x1="39" y1="-2" x2="39" y2="122" gradientUnits="userSpaceOnUse">
<stop stop-color="#FFD600"/>
<stop offset="0.8125" stop-color="#FFD600" stop-opacity="0"/>
</linearGradient>
</defs>
</svg>
