<svg width="78" height="94" viewBox="0 0 78 94" fill="none" xmlns="http://www.w3.org/2000/svg">
<path d="M0.376 57.568H16.888C16.888 65.5893 18.68 71.1787 22.264 74.336C25.848 77.408 31.9067 78.944 40.44 78.944C47.608 78.944 52.7707 77.8347 55.928 75.616C59.1707 73.3973 60.792 69.9413 60.792 65.248C60.792 56.6293 55.9707 52.32 46.328 52.32H33.784V37.984H46.328C55.1173 37.984 59.512 34.272 59.512 26.848C59.512 22.8373 58.0613 19.8507 55.16 17.888C52.2587 15.84 47.352 14.816 40.44 14.816C32.1627 14.816 26.36 16.1387 23.032 18.784C19.7893 21.4293 18.168 25.824 18.168 31.968H1.656C1.656 21.3013 5.06933 13.408 11.896 8.28799C18.808 3.08266 28.3227 0.479996 40.44 0.479996C51.3627 0.479996 60.024 2.61333 66.424 6.88C72.824 11.1467 76.024 17.0773 76.024 24.672C76.024 30.4747 74.3173 34.6987 70.904 37.344C67.576 39.9893 62.6693 41.8667 56.184 42.976V47.2C59.512 47.7973 62.2427 48.4373 64.376 49.12C66.5947 49.8027 68.7707 50.8693 70.904 52.32C73.1227 53.6853 74.744 55.6053 75.768 58.08C76.792 60.5547 77.304 63.6267 77.304 67.296C77.304 75.6587 73.9333 82.1013 67.192 86.624C60.536 91.0613 51.6187 93.28 40.44 93.28C28.0667 93.28 18.296 90.464 11.128 84.832C3.96 79.1147 0.376 70.0267 0.376 57.568Z" fill="url(#paint0_linear_6_63)"/>
<defs>
<linearGradient id="paint0_linear_6_63" x1="40" y1="-2" x2="40" y2="122" gradientUnits="userSpaceOnUse">
<stop stop-color="#FFD600"/>
<stop offset="0.8125" stop-color="#FFD600" stop-opacity="0"/>
</linearGradient>
</defs>
</svg>
