<svg width="80" height="93" viewBox="0 0 80 93" fill="none" xmlns="http://www.w3.org/2000/svg">
<path d="M0.272 58.232H16.656C16.656 71.3733 24.6773 77.944 40.72 77.944C48.3147 77.944 53.8613 76.2373 57.36 72.824C60.944 69.4107 62.736 64.2907 62.736 57.464C62.736 45.688 57.1467 39.8 45.968 39.8C37.6907 39.8 30.9067 43.3413 25.616 50.424L6.416 39.672V0.759995H72.336V15.096H22.928V31.608L19.856 41.464L23.44 43.512C28.4747 31.48 37.52 25.464 50.576 25.464C59.1093 25.464 66.0213 28.3227 71.312 34.04C76.6027 39.672 79.248 47.4373 79.248 57.336C79.248 68.7707 75.792 77.4747 68.88 83.448C62.0533 89.336 52.6667 92.28 40.72 92.28C28.432 92.28 18.6187 89.4213 11.28 83.704C3.94133 77.9867 0.272 69.496 0.272 58.232Z" fill="url(#paint0_linear_10_4)"/>
<defs>
<linearGradient id="paint0_linear_10_4" x1="40.5" y1="-3" x2="40.5" y2="121" gradientUnits="userSpaceOnUse">
<stop stop-color="#FFD600"/>
<stop offset="0.8125" stop-color="#FFD600" stop-opacity="0"/>
</linearGradient>
</defs>
</svg>
