<svg width="302" height="224" viewBox="0 0 302 224" fill="none" xmlns="http://www.w3.org/2000/svg">
<path d="M189.943 34.0824C182.129 26.2856 182.129 13.6444 189.943 5.84762C197.757 -1.9492 210.426 -1.94921 218.24 5.84762L296.057 83.4932C303.871 91.29 303.871 103.931 296.057 111.728C288.243 119.525 275.574 119.525 267.76 111.728L189.943 34.0824Z" fill="#FFD600"/>
<path d="M5.86048 5.84762C-1.9535 13.6444 -1.9535 26.2856 5.8605 34.0824L83.6772 111.728C91.4912 119.525 104.16 119.525 111.974 111.728C119.788 103.931 119.788 91.29 111.974 83.4932L34.1575 5.84762C26.3435 -1.94921 13.6745 -1.9492 5.86048 5.84762Z" fill="#FFD600"/>
<path d="M189.943 111.662C182.129 119.459 182.129 132.1 189.943 139.897L267.76 217.543C275.574 225.339 288.243 225.339 296.057 217.543C303.871 209.746 303.871 197.105 296.057 189.308L218.24 111.662C210.426 103.865 197.757 103.865 189.943 111.662Z" fill="#FFD600"/>
<path d="M5.8605 139.897C-1.9535 132.1 -1.9535 119.459 5.86048 111.662C13.6745 103.865 26.3435 103.865 34.1575 111.662L111.974 189.308C119.788 197.105 119.788 209.746 111.974 217.543C104.16 225.339 91.4912 225.339 83.6772 217.543L5.8605 139.897Z" fill="#FFD600"/>
</svg>
