<svg width="486" height="446" viewBox="0 0 486 446" fill="none" xmlns="http://www.w3.org/2000/svg">
<path d="M5.8605 34.0824C-1.95349 26.2856 -1.9535 13.6444 5.86049 5.84761C13.6745 -1.9492 26.3435 -1.94921 34.1575 5.84761L111.974 83.4932C119.788 91.2901 119.788 103.931 111.974 111.728C104.16 119.525 91.4912 119.525 83.6772 111.728L5.8605 34.0824Z" fill="#FFD600"/>
<path d="M189.943 5.84761C182.129 13.6444 182.129 26.2856 189.943 34.0824L267.76 111.728C275.574 119.525 288.243 119.525 296.057 111.728C303.871 103.931 303.871 91.2901 296.057 83.4932L218.24 5.84761C210.426 -1.94921 197.757 -1.9492 189.943 5.84761Z" fill="#FFD600"/>
<path d="M374.026 5.84761C366.212 13.6444 366.212 26.2856 374.026 34.0824L451.842 111.728C459.656 119.525 472.325 119.525 480.139 111.728C487.953 103.931 487.953 91.2901 480.139 83.4932L402.323 5.84761C394.509 -1.94921 381.84 -1.9492 374.026 5.84761Z" fill="#FFD600"/>
<path d="M374.026 117.652C366.212 125.448 366.212 138.09 374.026 145.886L451.842 223.532C459.656 231.329 472.325 231.329 480.139 223.532C487.953 215.735 487.953 203.094 480.139 195.297L402.323 117.652C394.509 109.855 381.84 109.855 374.026 117.652Z" fill="#FFD600"/>
<path d="M189.943 145.886C182.129 138.09 182.129 125.448 189.943 117.652C197.757 109.855 210.426 109.855 218.24 117.652L296.057 195.297C303.871 203.094 303.871 215.735 296.057 223.532C288.243 231.329 275.574 231.329 267.76 223.532L189.943 145.886Z" fill="#FFD600"/>
<path d="M5.86049 117.652C-1.9535 125.448 -1.95349 138.09 5.8605 145.886L83.6772 223.532C91.4912 231.329 104.16 231.329 111.974 223.532C119.788 215.735 119.788 203.094 111.974 195.297L34.1575 117.652C26.3435 109.855 13.6745 109.855 5.86049 117.652Z" fill="#FFD600"/>
<path d="M374.026 256.692C366.212 248.895 366.212 236.254 374.026 228.457C381.84 220.661 394.509 220.661 402.323 228.457L480.139 306.103C487.953 313.9 487.953 326.541 480.139 334.338C472.325 342.135 459.656 342.135 451.842 334.338L374.026 256.692Z" fill="#FFD600"/>
<path d="M189.943 228.457C182.129 236.254 182.129 248.895 189.943 256.692L267.76 334.338C275.574 342.135 288.243 342.135 296.057 334.338C303.871 326.541 303.871 313.9 296.057 306.103L218.24 228.457C210.426 220.661 197.757 220.661 189.943 228.457Z" fill="#FFD600"/>
<path d="M5.8605 256.692C-1.95349 248.895 -1.9535 236.254 5.86049 228.457C13.6745 220.661 26.3435 220.661 34.1575 228.457L111.974 306.103C119.788 313.9 119.788 326.541 111.974 334.338C104.16 342.135 91.4912 342.135 83.6772 334.338L5.8605 256.692Z" fill="#FFD600"/>
<path d="M374.026 334.272C366.212 342.069 366.212 354.71 374.026 362.507L451.842 440.152C459.656 447.949 472.325 447.949 480.139 440.152C487.953 432.356 487.953 419.714 480.139 411.918L402.323 334.272C394.509 326.475 381.84 326.475 374.026 334.272Z" fill="#FFD600"/>
<path d="M189.943 362.507C182.129 354.71 182.129 342.069 189.943 334.272C197.757 326.475 210.426 326.475 218.24 334.272L296.057 411.918C303.871 419.714 303.871 432.356 296.057 440.152C288.243 447.949 275.574 447.949 267.76 440.152L189.943 362.507Z" fill="#FFD600"/>
<path d="M5.86049 334.272C-1.9535 342.069 -1.95349 354.71 5.8605 362.507L83.6772 440.152C91.4912 447.949 104.16 447.949 111.974 440.152C119.788 432.356 119.788 419.714 111.974 411.918L34.1575 334.272C26.3435 326.475 13.6745 326.475 5.86049 334.272Z" fill="#FFD600"/>
</svg>
