<svg width="302" height="446" viewBox="0 0 302 446" fill="none" xmlns="http://www.w3.org/2000/svg">
<path d="M5.943 5.84761C-1.87098 13.6444 -1.87098 26.2856 5.94302 34.0824L83.7597 111.728C91.5737 119.525 104.243 119.525 112.057 111.728C119.871 103.931 119.871 91.2901 112.057 83.4932L34.24 5.84761C26.426 -1.94921 13.757 -1.9492 5.943 5.84761Z" fill="#FFD600"/>
<path d="M190.026 5.84761C182.212 13.6444 182.212 26.2856 190.026 34.0824L267.842 111.728C275.656 119.525 288.325 119.525 296.139 111.728C303.953 103.931 303.953 91.2901 296.139 83.4932L218.323 5.84761C210.509 -1.94921 197.84 -1.9492 190.026 5.84761Z" fill="#FFD600"/>
<path d="M190.026 117.652C182.212 125.448 182.212 138.09 190.026 145.886L267.842 223.532C275.656 231.329 288.325 231.329 296.139 223.532C303.953 215.735 303.953 203.094 296.139 195.297L218.323 117.652C210.509 109.855 197.84 109.855 190.026 117.652Z" fill="#FFD600"/>
<path d="M5.94302 145.886C-1.87098 138.09 -1.87098 125.448 5.943 117.652C13.757 109.855 26.426 109.855 34.24 117.652L112.057 195.297C119.871 203.094 119.871 215.735 112.057 223.532C104.243 231.329 91.5737 231.329 83.7597 223.532L5.94302 145.886Z" fill="#FFD600"/>
<path d="M190.026 256.692C182.212 248.895 182.212 236.254 190.026 228.457C197.84 220.661 210.509 220.661 218.323 228.457L296.139 306.103C303.953 313.9 303.953 326.541 296.139 334.338C288.325 342.135 275.656 342.135 267.842 334.338L190.026 256.692Z" fill="#FFD600"/>
<path d="M5.943 228.457C-1.87098 236.254 -1.87098 248.895 5.94302 256.692L83.7597 334.338C91.5737 342.135 104.243 342.135 112.057 334.338C119.871 326.541 119.871 313.9 112.057 306.103L34.24 228.457C26.426 220.661 13.757 220.661 5.943 228.457Z" fill="#FFD600"/>
<path d="M190.026 334.272C182.212 342.069 182.212 354.71 190.026 362.507L267.842 440.152C275.656 447.949 288.325 447.949 296.139 440.152C303.953 432.356 303.953 419.714 296.139 411.918L218.323 334.272C210.509 326.475 197.84 326.475 190.026 334.272Z" fill="#FFD600"/>
<path d="M5.94302 362.507C-1.87098 354.71 -1.87098 342.069 5.943 334.272C13.757 326.475 26.426 326.475 34.24 334.272L112.057 411.918C119.871 419.714 119.871 432.356 112.057 440.152C104.243 447.949 91.5737 447.949 83.7597 440.152L5.94302 362.507Z" fill="#FFD600"/>
</svg>
