<svg width="1745" height="476" viewBox="0 0 1745 476" fill="none" xmlns="http://www.w3.org/2000/svg">
<path d="M74 192C74 192 124.373 205.27 126.5 240C128.555 273.561 72.4168 282.413 74 316C74.7329 331.547 91.5 356.5 91.5 356.5" stroke="black" stroke-width="5"/>
<ellipse cx="80.5" cy="123" rx="80.5" ry="92" fill="#FFD600"/>
<path d="M866 310C866 310 916.374 323.27 918.5 358C920.555 391.561 864.417 400.413 866 434C866.733 449.547 883.5 474.5 883.5 474.5" stroke="black" stroke-width="5"/>
<ellipse cx="872.5" cy="241" rx="80.5" ry="92" fill="#FFD600"/>
<path d="M1130 192C1130 192 1180.37 205.27 1182.5 240C1184.55 273.561 1128.42 282.413 1130 316C1130.73 331.547 1147.5 356.5 1147.5 356.5" stroke="black" stroke-width="5"/>
<ellipse cx="1136.5" cy="123" rx="80.5" ry="92" fill="#FFD600"/>
<path d="M1658 182C1658 182 1708.37 195.27 1710.5 230C1712.55 263.561 1656.42 272.413 1658 306C1658.73 321.547 1675.5 346.5 1675.5 346.5" stroke="black" stroke-width="5"/>
<ellipse cx="1664.5" cy="113" rx="80.5" ry="92" fill="#FFD600"/>
<path d="M338 295C338 295 388.374 308.27 390.5 343C392.555 376.561 336.417 385.413 338 419C338.733 434.547 355.5 459.5 355.5 459.5" stroke="black" stroke-width="5"/>
<ellipse cx="344.5" cy="226" rx="80.5" ry="92" fill="#A285F4"/>
<path d="M602 161C602 161 652.374 174.27 654.5 209C656.555 242.561 600.417 251.413 602 285C602.733 300.547 619.5 325.5 619.5 325.5" stroke="black" stroke-width="5"/>
<ellipse cx="608.5" cy="92" rx="80.5" ry="92" fill="#A285F4"/>
<path d="M1394 310C1394 310 1444.37 323.27 1446.5 358C1448.55 391.561 1392.42 400.413 1394 434C1394.73 449.547 1411.5 474.5 1411.5 474.5" stroke="black" stroke-width="5"/>
<ellipse cx="1400.5" cy="241" rx="80.5" ry="92" fill="#A285F4"/>
</svg>
