<svg width="2747" height="512" viewBox="0 0 2747 512" fill="none" xmlns="http://www.w3.org/2000/svg">
<rect width="512" height="512" fill="#0B0B0B"/>
<path d="M18.8605 73.0126C11.0465 65.4605 11.0465 53.2161 18.8605 45.6641C26.6745 38.112 39.3435 38.112 47.1575 45.6641L124.974 120.872C132.788 128.424 132.788 140.669 124.974 148.221C117.16 155.773 104.491 155.773 96.6772 148.221L18.8605 73.0126Z" fill="#FFD600"/>
<path d="M202.943 45.6641C195.129 53.2161 195.129 65.4605 202.943 73.0126L280.76 148.221C288.574 155.773 301.243 155.773 309.057 148.221C316.871 140.669 316.871 128.424 309.057 120.872L231.24 45.6641C223.426 38.112 210.757 38.112 202.943 45.6641Z" fill="#FFD600"/>
<path d="M387.026 45.6641C379.212 53.2161 379.212 65.4605 387.026 73.0126L464.843 148.221C472.657 155.773 485.326 155.773 493.14 148.221C500.954 140.669 500.954 128.424 493.14 120.872L415.323 45.6641C407.509 38.112 394.84 38.112 387.026 45.6641Z" fill="#FFD600"/>
<path d="M387.026 153.959C379.212 161.511 379.212 173.755 387.026 181.307L464.843 256.515C472.657 264.067 485.326 264.067 493.14 256.515C500.954 248.963 500.954 236.719 493.14 229.167L415.323 153.959C407.509 146.406 394.84 146.406 387.026 153.959Z" fill="#FFD600"/>
<path d="M202.943 181.307C195.129 173.755 195.129 161.511 202.943 153.959C210.757 146.406 223.426 146.406 231.24 153.959L309.057 229.167C316.871 236.719 316.871 248.963 309.057 256.515C301.243 264.067 288.574 264.067 280.76 256.515L202.943 181.307Z" fill="#FFD600"/>
<path d="M18.8605 153.959C11.0465 161.511 11.0465 173.755 18.8605 181.307L96.6772 256.515C104.491 264.067 117.16 264.067 124.974 256.515C132.788 248.963 132.788 236.719 124.974 229.167L47.1575 153.959C39.3435 146.406 26.6745 146.406 18.8605 153.959Z" fill="#FFD600"/>
<path d="M387.026 288.635C379.212 281.083 379.212 268.838 387.026 261.286C394.84 253.734 407.509 253.734 415.323 261.286L493.14 336.494C500.954 344.047 500.954 356.291 493.14 363.843C485.326 371.395 472.657 371.395 464.843 363.843L387.026 288.635Z" fill="#FFD600"/>
<path d="M202.943 261.286C195.129 268.838 195.129 281.083 202.943 288.635L280.76 363.843C288.574 371.395 301.243 371.395 309.057 363.843C316.871 356.291 316.871 344.047 309.057 336.494L231.24 261.286C223.426 253.734 210.757 253.734 202.943 261.286Z" fill="#FFD600"/>
<path d="M18.8605 288.635C11.0465 281.083 11.0465 268.838 18.8605 261.286C26.6745 253.734 39.3435 253.734 47.1575 261.286L124.974 336.494C132.788 344.047 132.788 356.291 124.974 363.843C117.16 371.395 104.491 371.395 96.6772 363.843L18.8605 288.635Z" fill="#FFD600"/>
<path d="M387.026 363.779C379.212 371.331 379.212 383.576 387.026 391.128L464.843 466.336C472.657 473.888 485.326 473.888 493.14 466.336C500.954 458.784 500.954 446.539 493.14 438.987L415.323 363.779C407.509 356.227 394.84 356.227 387.026 363.779Z" fill="#FFD600"/>
<path d="M202.943 391.128C195.129 383.576 195.129 371.331 202.943 363.779C210.757 356.227 223.426 356.227 231.24 363.779L309.057 438.987C316.871 446.539 316.871 458.784 309.057 466.336C301.243 473.888 288.574 473.888 280.76 466.336L202.943 391.128Z" fill="#FFD600"/>
<path d="M18.8605 363.779C11.0465 371.331 11.0465 383.576 18.8605 391.128L96.6772 466.336C104.491 473.888 117.16 473.888 124.974 466.336C132.788 458.784 132.788 446.539 124.974 438.987L47.1575 363.779C39.3435 356.227 26.6745 356.227 18.8605 363.779Z" fill="#FFD600"/>
<path d="M771.472 273.328H788.368V337.072H755.344V302H641.424V337.072H608.4V273.328H625.296C642.021 243.803 650.384 193.2 650.384 121.52H771.472V273.328ZM658.32 273.328H738.448V150.192H682.64C680.933 206.853 672.827 247.899 658.32 273.328ZM801.27 236.208C801.27 216.069 807.329 200.197 819.446 188.592C831.563 176.816 847.35 170.928 866.806 170.928C886.262 170.928 901.878 176.56 913.654 187.824C925.601 199.088 931.574 214.363 931.574 233.648V244.4H832.502C832.843 254.469 836.086 262.576 842.23 268.72C848.545 274.693 858.017 277.68 870.646 277.68C888.907 277.68 899.745 270.768 903.158 256.944H936.182C933.963 268.72 927.307 279.643 916.214 289.712C905.121 299.611 889.931 304.56 870.646 304.56C847.947 304.56 830.71 298.075 818.934 285.104C807.158 272.133 801.27 255.835 801.27 236.208ZM832.502 224.432H900.342C900.342 216.752 897.526 210.437 891.894 205.488C886.433 200.539 878.07 198.064 866.806 198.064C855.542 198.064 847.009 200.624 841.206 205.744C835.403 210.693 832.502 216.923 832.502 224.432ZM1056.69 173.488H1089.46V302H1056.69V252.08H991.414V302H958.39V173.488H991.414V223.408H1056.69V173.488ZM1177.42 204.976C1217.01 204.976 1236.81 221.104 1236.81 253.36C1236.81 285.787 1217.01 302 1177.42 302H1122.89V173.488H1155.91V204.976H1177.42ZM1155.91 273.328H1174.86C1185.44 273.328 1192.86 272.133 1197.13 269.744C1201.57 267.184 1203.79 261.723 1203.79 253.36C1203.79 245.168 1201.57 239.877 1197.13 237.488C1192.86 234.928 1185.44 233.648 1174.86 233.648H1155.91V273.328ZM1341.89 173.488H1374.91V185.776L1369.03 205.488H1377.47C1385.15 182.448 1402.22 170.928 1428.67 170.928C1446.59 170.928 1460.67 177.328 1470.91 190.128C1481.32 202.757 1486.53 218.715 1486.53 238C1486.53 257.115 1481.32 272.987 1470.91 285.616C1460.67 298.245 1446.59 304.56 1428.67 304.56C1402.22 304.56 1385.15 293.125 1377.47 270.256H1369.03L1374.91 289.712V349.872H1341.89V173.488ZM1374.91 238C1374.91 250.8 1378.41 260.357 1385.41 266.672C1392.58 272.816 1402.31 275.888 1414.59 275.888C1426.88 275.888 1436.44 272.816 1443.27 266.672C1450.09 260.357 1453.51 250.8 1453.51 238C1453.51 225.029 1450.09 215.387 1443.27 209.072C1436.44 202.757 1426.88 199.6 1414.59 199.6C1402.31 199.6 1392.58 202.757 1385.41 209.072C1378.41 215.387 1374.91 225.029 1374.91 238ZM1529.23 286.64C1516.09 274.693 1509.52 258.395 1509.52 237.744C1509.52 217.093 1516.09 200.795 1529.23 188.848C1542.37 176.901 1559.35 170.928 1580.18 170.928C1600.83 170.928 1617.72 176.901 1630.86 188.848C1644.01 200.795 1650.58 217.093 1650.58 237.744C1650.58 258.395 1644.01 274.693 1630.86 286.64C1617.72 298.587 1600.83 304.56 1580.18 304.56C1559.35 304.56 1542.37 298.587 1529.23 286.64ZM1552.53 209.84C1545.87 216.667 1542.54 225.968 1542.54 237.744C1542.54 249.52 1545.87 258.821 1552.53 265.648C1559.18 272.475 1568.4 275.888 1580.18 275.888C1591.95 275.888 1601.17 272.475 1607.82 265.648C1614.48 258.821 1617.81 249.52 1617.81 237.744C1617.81 225.968 1614.48 216.667 1607.82 209.84C1601.17 203.013 1591.95 199.6 1580.18 199.6C1568.4 199.6 1559.18 203.013 1552.53 209.84ZM1864.91 202.16H1844.18L1819.86 234.416L1864.91 302H1828.56L1794.26 251.312H1791.19H1779.67V302H1746.9V251.312H1735.38H1732.31L1698 302H1661.65L1706.71 234.416L1682.39 202.16H1661.65V173.488H1683.67C1694.42 173.488 1702.27 176.901 1707.22 183.728L1736.15 222.384H1746.9V173.488H1779.67V222.384H1790.42L1819.35 183.728C1824.3 176.901 1832.15 173.488 1842.9 173.488H1864.91V202.16ZM2034.58 273.328V337.072H2001.55V302H1915.79V337.072H1882.77V273.328H1899.67C1906.49 262.235 1911.36 249.093 1914.26 233.904C1917.16 218.715 1918.61 198.576 1918.61 173.488H2017.68V273.328H2034.58ZM1932.69 273.328H1984.66V202.16H1950.87C1949.16 232.88 1943.1 256.603 1932.69 273.328ZM2050.02 236.208C2050.02 216.069 2056.08 200.197 2068.2 188.592C2080.31 176.816 2096.1 170.928 2115.56 170.928C2135.01 170.928 2150.63 176.56 2162.4 187.824C2174.35 199.088 2180.32 214.363 2180.32 233.648V244.4H2081.25C2081.59 254.469 2084.84 262.576 2090.98 268.72C2097.29 274.693 2106.77 277.68 2119.4 277.68C2137.66 277.68 2148.49 270.768 2151.91 256.944H2184.93C2182.71 268.72 2176.06 279.643 2164.96 289.712C2153.87 299.611 2138.68 304.56 2119.4 304.56C2096.7 304.56 2079.46 298.075 2067.68 285.104C2055.91 272.133 2050.02 255.835 2050.02 236.208ZM2081.25 224.432H2149.09C2149.09 216.752 2146.28 210.437 2140.64 205.488C2135.18 200.539 2126.82 198.064 2115.56 198.064C2104.29 198.064 2095.76 200.624 2089.96 205.744C2084.15 210.693 2081.25 216.923 2081.25 224.432ZM2305.44 173.488H2338.21V302H2305.44V252.08H2240.16V302H2207.14V173.488H2240.16V223.408H2305.44V173.488ZM2511.42 302H2478.65V200.112L2484.54 182.192H2476.09L2436.66 302H2371.64V173.488H2404.66V274.608L2398.78 293.552H2407.22L2446.65 173.488H2511.42V302ZM2640.75 173.488V302H2607.73V249.008H2595.44L2569.07 289.712C2563.61 297.904 2555.93 302 2546.03 302H2527.09V275.12H2547.31L2564.21 247.984C2554.14 246.448 2546.38 242.949 2540.91 237.488C2535.45 231.856 2532.72 223.067 2532.72 211.12C2532.72 198.149 2537.24 188.677 2546.29 182.704C2555.51 176.56 2567.62 173.488 2582.64 173.488H2640.75ZM2607.73 225.456V197.04H2589.55C2581.02 197.04 2574.88 198.064 2571.12 200.112C2567.54 202.16 2565.75 205.829 2565.75 211.12C2565.75 216.581 2567.54 220.336 2571.12 222.384C2574.88 224.432 2581.02 225.456 2589.55 225.456H2607.73ZM2685.66 121.52H2718.68L2713.05 237.488H2691.29L2685.66 121.52ZM2702.04 304.56C2694.53 304.56 2688.39 302.171 2683.61 297.392C2679 292.443 2676.7 286.299 2676.7 278.96C2676.7 271.792 2679 265.819 2683.61 261.04C2688.39 256.261 2694.53 253.872 2702.04 253.872C2709.38 253.872 2715.44 256.261 2720.22 261.04C2725.17 265.819 2727.64 271.792 2727.64 278.96C2727.64 286.299 2725.17 292.443 2720.22 297.392C2715.44 302.171 2709.38 304.56 2702.04 304.56Z" fill="#0B0B0B"/>
</svg>
